<svg width="42" height="42" viewBox="0 0 42 42" fill="none" xmlns="http://www.w3.org/2000/svg">
<path d="M31.9152 4.62012H10.0849C9.58158 4.63395 9.08862 4.76607 8.64582 5.0058C8.20302 5.24553 7.82286 5.58615 7.536 6.00012L2.07844 13.5601C1.67319 14.133 1.47081 14.8249 1.5034 15.526C1.536 16.2272 1.80171 16.8973 2.25836 17.4301L18.6311 36.3C18.9114 36.6615 19.2705 36.954 19.6811 37.155C20.0917 37.3563 20.5428 37.4607 21 37.4607C21.4572 37.4607 21.9083 37.3563 22.3189 37.155C22.7295 36.954 23.0886 36.6615 23.3689 36.3L39.7416 17.4301C40.1982 16.8973 40.464 16.2272 40.4967 15.526C40.5291 14.8249 40.3269 14.133 39.9216 13.5601L34.464 6.00012C34.1772 5.58615 33.7971 5.24553 33.3543 5.0058C32.9115 4.76607 32.4183 4.63395 31.9152 4.62012Z" stroke="#F86624" stroke-linecap="round" stroke-linejoin="round"/>
<path d="M19.4401 4.59009L12.1201 15.9301L21.0001 37.38" stroke="#F86624" stroke-linecap="round" stroke-linejoin="round"/>
<path d="M22.65 4.59009L29.94 15.9301L21 37.38" stroke="#F86624" stroke-linecap="round" stroke-linejoin="round"/>
<path d="M1.56006 15.9302H40.44" stroke="#F86624" stroke-linecap="round" stroke-linejoin="round"/>
</svg>
