<svg width="42" height="42" viewBox="0 0 42 42" fill="none" xmlns="http://www.w3.org/2000/svg">
<path d="M1.5 33C1.5 34.6569 2.84091 36 4.49499 36H37.5051C39.159 36 40.5 34.6569 40.5 33V26.8979C37.9071 26.194 35.9997 23.8201 35.9997 21C35.9997 18.1799 37.9071 15.806 40.5 15.1021V9C40.5 7.34316 39.159 6 37.5051 6H4.49499C2.84091 6 1.5 7.34313 1.5 9V15.0889C4.1181 15.776 6.04968 18.162 6.04968 21C6.04968 23.838 4.1181 26.224 1.5 26.9111V33Z" stroke="black" stroke-linecap="round" stroke-linejoin="round"/>
<path d="M13.5615 28.5L28.5615 13.5" stroke="black" stroke-linecap="round" stroke-linejoin="round"/>
<path d="M15.0615 16.5C15.8899 16.5 16.5615 15.8284 16.5615 15C16.5615 14.1716 15.8899 13.5 15.0615 13.5C14.2331 13.5 13.5615 14.1716 13.5615 15C13.5615 15.8284 14.2331 16.5 15.0615 16.5Z" stroke="black" stroke-linecap="round" stroke-linejoin="round"/>
<path d="M27.0615 28.5C27.8899 28.5 28.5615 27.8284 28.5615 27C28.5615 26.1716 27.8899 25.5 27.0615 25.5C26.2331 25.5 25.5615 26.1716 25.5615 27C25.5615 27.8284 26.2331 28.5 27.0615 28.5Z" stroke="black" stroke-linecap="round" stroke-linejoin="round"/>
</svg>
