<svg width="38" height="38" viewBox="0 0 38 38" fill="none" xmlns="http://www.w3.org/2000/svg">
<rect x="0.5" y="0.5" width="37" height="37" fill="white" stroke="#004AAD"/>
<path d="M17.667 8.33331H8.33366C7.62641 8.33331 6.94814 8.61426 6.44804 9.11436C5.94794 9.61446 5.66699 10.2927 5.66699 11V29.6666C5.66699 30.3739 5.94794 31.0522 6.44804 31.5523C6.94814 32.0524 7.62641 32.3333 8.33366 32.3333H27.0003C27.7076 32.3333 28.3858 32.0524 28.8859 31.5523C29.386 31.0522 29.667 30.3739 29.667 29.6666V20.3333" stroke="#004AAD" stroke-width="2" stroke-linecap="round" stroke-linejoin="round"/>
<path d="M27.667 6.33331C28.1974 5.80288 28.9168 5.50488 29.667 5.50488C30.4171 5.50488 31.1366 5.80288 31.667 6.33331C32.1974 6.86374 32.4954 7.58316 32.4954 8.33331C32.4954 9.08346 32.1974 9.80288 31.667 10.3333L19.0003 23L13.667 24.3333L15.0003 19L27.667 6.33331Z" stroke="#004AAD" stroke-width="2" stroke-linecap="round" stroke-linejoin="round"/>
</svg>
