<svg width="42" height="42" viewBox="0 0 42 42" fill="none" xmlns="http://www.w3.org/2000/svg">
<path d="M12.0879 13.5C15.4016 13.5 18.0879 10.8137 18.0879 7.5C18.0879 4.18629 15.4016 1.5 12.0879 1.5C8.77418 1.5 6.08789 4.18629 6.08789 7.5C6.08789 10.8137 8.77418 13.5 12.0879 13.5Z" stroke="black" stroke-linecap="round" stroke-linejoin="round"/>
<path d="M17.147 31.5735L16.0312 40.5H8.17968L6.67968 28.5H1.58789V24C1.58789 21.2152 2.69414 18.5445 4.66326 16.5754C6.6324 14.6062 9.30312 13.5 12.0879 13.5C14.8727 13.5 17.5434 14.6062 19.5125 16.5754C21.0271 18.0899 22.0312 20.0196 22.414 22.0969" stroke="black" stroke-linecap="round" stroke-linejoin="round"/>
<path d="M21.8848 29.9115C21.8848 28.4496 23.0699 27.2644 24.5318 27.2644H37.7673C39.2292 27.2644 40.4142 28.4496 40.4142 29.9115V37.8528C40.4142 39.3147 39.2292 40.4997 37.7673 40.4997H24.5318C23.0699 40.4997 21.8848 39.3147 21.8848 37.8528V29.9115Z" stroke="black" stroke-linecap="round" stroke-linejoin="round"/>
<path d="M27.5273 27.2645V25.3118C27.5273 23.6549 28.8705 22.3118 30.5274 22.3118H31.7652C33.4218 22.3118 34.7652 23.6549 34.7652 25.3118V27.2645" stroke="black" stroke-linecap="round" stroke-linejoin="round"/>
</svg>
