<svg width="40" height="34" viewBox="0 0 40 34" fill="none" xmlns="http://www.w3.org/2000/svg">
<path d="M30.9152 0.620117H9.08486C8.58158 0.633947 8.08862 0.766067 7.64582 1.0058C7.20302 1.24553 6.82286 1.58615 6.536 2.00012L1.07844 9.56012C0.673193 10.133 0.470807 10.8249 0.503402 11.526C0.535997 12.2272 0.801707 12.8973 1.25836 13.4301L17.6311 32.3C17.9114 32.6615 18.2705 32.954 18.6811 33.155C19.0917 33.3563 19.5428 33.4607 20 33.4607C20.4572 33.4607 20.9083 33.3563 21.3189 33.155C21.7295 32.954 22.0886 32.6615 22.3689 32.3L38.7416 13.4301C39.1982 12.8973 39.464 12.2272 39.4967 11.526C39.5291 10.8249 39.3269 10.133 38.9216 9.56012L33.464 2.00012C33.1772 1.58615 32.7971 1.24553 32.3543 1.0058C31.9115 0.766067 31.4183 0.633947 30.9152 0.620117Z" stroke="black" stroke-linecap="round" stroke-linejoin="round"/>
<path d="M18.4401 0.590088L11.1201 11.9301L20.0001 33.38" stroke="black" stroke-linecap="round" stroke-linejoin="round"/>
<path d="M21.65 0.590088L28.94 11.9301L20 33.38" stroke="black" stroke-linecap="round" stroke-linejoin="round"/>
<path d="M0.560059 11.9302H39.44" stroke="black" stroke-linecap="round" stroke-linejoin="round"/>
</svg>
