<svg width="30" height="30" viewBox="0 0 30 30" fill="none" xmlns="http://www.w3.org/2000/svg">
<path d="M15 28.4375C10 28.4375 5.9375 24.85 5.9375 20.4375V15.8125C5.9375 15.3 6.3625 14.875 6.875 14.875C7.3875 14.875 7.8125 15.3 7.8125 15.8125C7.8125 19.0875 10.9 21.5625 15 21.5625C19.1 21.5625 22.1875 19.0875 22.1875 15.8125C22.1875 15.3 22.6125 14.875 23.125 14.875C23.6375 14.875 24.0625 15.3 24.0625 15.8125V20.4375C24.0625 24.85 20 28.4375 15 28.4375ZM7.8125 20.575C7.9 23.8875 11.0875 26.5625 15 26.5625C18.9125 26.5625 22.1 23.8875 22.1875 20.575C20.5625 22.3375 17.9875 23.4375 15 23.4375C12.0125 23.4375 9.45 22.3375 7.8125 20.575Z" fill="#292D32"/>
<path d="M15 17.1875C11.55 17.1875 8.44998 15.6375 6.93748 13.1375C6.28748 12.075 5.9375 10.8375 5.9375 9.5625C5.9375 7.4125 6.9 5.3875 8.6375 3.8625C10.3375 2.375 12.6 1.5625 15 1.5625C17.4 1.5625 19.65 2.375 21.3625 3.85C23.1 5.3875 24.0625 7.4125 24.0625 9.5625C24.0625 10.8375 23.7125 12.0625 23.0625 13.1375C21.55 15.6375 18.45 17.1875 15 17.1875ZM15 3.4375C13.05 3.4375 11.225 4.0875 9.86252 5.2875C8.53752 6.4375 7.8125 7.9625 7.8125 9.5625C7.8125 10.5 8.06248 11.375 8.53748 12.1625C9.72498 14.1125 12.2 15.3125 15 15.3125C17.8 15.3125 20.275 14.1 21.4625 12.1625C21.95 11.375 22.1875 10.5 22.1875 9.5625C22.1875 7.9625 21.4625 6.4375 20.125 5.2625C18.7625 4.0875 16.95 3.4375 15 3.4375Z" fill="#292D32"/>
<path d="M15 23.4375C9.8375 23.4375 5.9375 20.1625 5.9375 15.8125V9.5625C5.9375 5.15 10 1.5625 15 1.5625C17.4 1.5625 19.65 2.375 21.3625 3.85C23.1 5.3875 24.0625 7.4125 24.0625 9.5625V15.8125C24.0625 20.1625 20.1625 23.4375 15 23.4375ZM15 3.4375C11.0375 3.4375 7.8125 6.1875 7.8125 9.5625V15.8125C7.8125 19.0875 10.9 21.5625 15 21.5625C19.1 21.5625 22.1875 19.0875 22.1875 15.8125V9.5625C22.1875 7.9625 21.4625 6.4375 20.125 5.2625C18.7625 4.0875 16.95 3.4375 15 3.4375Z" fill="#292D32"/>
</svg>
