<svg width="30" height="30" viewBox="0 0 30 30" fill="none" xmlns="http://www.w3.org/2000/svg">
<path d="M21.6124 5.17499L21.5248 9.91249C21.5124 10.5625 21.9248 11.425 22.4498 11.8125L25.5499 14.1625C27.5374 15.6625 27.2124 17.5 24.8374 18.25L20.7999 19.5125C20.1248 19.725 19.4124 20.4625 19.2374 21.15L18.2748 24.825C17.5124 27.725 15.6123 28.0125 14.0373 25.4625L11.8374 21.9C11.4374 21.25 10.4874 20.7625 9.73735 20.8L5.56235 21.0125C2.57485 21.1625 1.72485 19.4375 3.67485 17.1625L6.14985 14.2875C6.61235 13.75 6.82485 12.75 6.61235 12.075L5.33735 8.02499C4.59985 5.64999 5.92485 4.33749 8.28735 5.11249L11.9748 6.32499C12.5998 6.52499 13.5374 6.38749 14.0624 5.99999L17.9123 3.22499C19.9998 1.73749 21.6624 2.61249 21.6124 5.17499Z" fill="#292D32"/>
<path d="M26.7999 25.5875L23.0124 21.8C22.6499 21.4375 22.0499 21.4375 21.6874 21.8C21.3249 22.1625 21.3249 22.7625 21.6874 23.125L25.4749 26.9125C25.6624 27.1 25.8999 27.1875 26.1374 27.1875C26.3749 27.1875 26.6124 27.1 26.7999 26.9125C27.1624 26.55 27.1624 25.95 26.7999 25.5875Z" fill="#292D32"/>
</svg>
