<svg width="38" height="38" viewBox="0 0 38 38" fill="none" xmlns="http://www.w3.org/2000/svg">
<rect x="0.5" y="0.5" width="37" height="37" fill="white" stroke="#004AAD"/>
<path d="M17.6667 8.33334H8.33341C7.62617 8.33334 6.94789 8.61429 6.4478 9.11439C5.9477 9.61449 5.66675 10.2928 5.66675 11V29.6667C5.66675 30.3739 5.9477 31.0522 6.4478 31.5523C6.94789 32.0524 7.62617 32.3333 8.33341 32.3333H27.0001C27.7073 32.3333 28.3856 32.0524 28.8857 31.5523C29.3858 31.0522 29.6667 30.3739 29.6667 29.6667V20.3333" stroke="#004AAD" stroke-width="2" stroke-linecap="round" stroke-linejoin="round"/>
<path d="M27.6667 6.33334C28.1972 5.80291 28.9166 5.50491 29.6667 5.50491C30.4169 5.50491 31.1363 5.80291 31.6667 6.33334C32.1972 6.86377 32.4952 7.58319 32.4952 8.33334C32.4952 9.08349 32.1972 9.80291 31.6667 10.3333L19.0001 23L13.6667 24.3333L15.0001 19L27.6667 6.33334Z" stroke="#004AAD" stroke-width="2" stroke-linecap="round" stroke-linejoin="round"/>
</svg>
