<svg width="42" height="42" viewBox="0 0 42 42" fill="none" xmlns="http://www.w3.org/2000/svg">
<path d="M10.5 3.5L5.25 10.5V35C5.25 35.9283 5.61875 36.8185 6.27513 37.4749C6.9315 38.1313 7.82174 38.5 8.75 38.5H33.25C34.1783 38.5 35.0685 38.1313 35.7249 37.4749C36.3813 36.8185 36.75 35.9283 36.75 35V10.5L31.5 3.5H10.5Z" stroke="black" stroke-width="2" stroke-linecap="round" stroke-linejoin="round"/>
<path d="M5.25 10.5H36.75" stroke="black" stroke-width="2" stroke-linecap="round" stroke-linejoin="round"/>
<path d="M28 17.5C28 19.3565 27.2625 21.137 25.9497 22.4497C24.637 23.7625 22.8565 24.5 21 24.5C19.1435 24.5 17.363 23.7625 16.0503 22.4497C14.7375 21.137 14 19.3565 14 17.5" stroke="black" stroke-width="2" stroke-linecap="round" stroke-linejoin="round"/>
</svg>
