<svg width="30" height="30" viewBox="0 0 30 30" fill="none" xmlns="http://www.w3.org/2000/svg">
<path d="M10.3235 26.5583C11.1322 25.7496 11.5967 24.7171 11.7172 23.6502C11.8806 22.2305 11.4075 20.7592 10.3235 19.675C9.6783 19.0297 8.88683 18.5995 8.05236 18.4016C6.46083 17.9972 4.69725 18.4188 3.44123 19.675C2.57234 20.5441 2.09918 21.654 2.03896 22.7983C1.99595 23.2888 2.03897 23.7964 2.16801 24.2869C2.36587 25.1215 2.79602 25.913 3.44123 26.5583C5.34246 28.4599 8.42228 28.4599 10.3235 26.5583ZM8.70617 22.2219C9.20514 22.2219 9.61808 22.6349 9.61808 23.1339C9.60947 23.6416 9.20514 24.0459 8.69757 24.0545L7.79427 24.0459L7.80287 24.915C7.79427 25.4226 7.38994 25.827 6.88237 25.8356C6.3748 25.827 5.97047 25.4226 5.96186 24.915L5.97047 24.0459L5.06717 24.0545C4.5596 24.0459 4.15527 23.6416 4.14666 23.1339C4.15527 22.8844 4.2585 22.6607 4.42195 22.4972C4.58541 22.3337 4.80908 22.2305 5.05857 22.2219L5.97047 22.2219L5.97047 21.2754C5.97047 21.0173 6.0737 20.7936 6.23716 20.6301C6.40061 20.4666 6.62428 20.3634 6.88237 20.3634C7.38133 20.3634 7.79427 20.7764 7.79427 21.2754L7.79427 22.2219L8.70617 22.2219Z" fill="#292D32"/>
<path d="M18.8676 4.80733V9.43119H17.0427V4.80733C17.0427 4.47879 16.7507 4.3206 16.556 4.3206C16.4952 4.3206 16.4344 4.33277 16.3735 4.35711L6.72569 7.99536C6.08088 8.23872 5.66722 8.84712 5.66722 9.5407V10.356C4.56009 11.1834 3.84229 12.5097 3.84229 14.0064V9.5407C3.84229 8.0927 4.73042 6.80289 6.08088 6.29183L15.7409 2.64141C16.0085 2.54406 16.2884 2.49539 16.556 2.49539C17.7727 2.49539 18.8676 3.48101 18.8676 4.80733Z" fill="#292D32"/>
<path d="M26.9601 17.6456V18.8624C26.9601 19.1909 26.7046 19.4586 26.364 19.4708H24.5877C23.9429 19.4708 23.3589 18.9963 23.3103 18.3635C23.2738 17.9863 23.4197 17.6334 23.6631 17.3901C23.8821 17.1589 24.1862 17.0372 24.5147 17.0372H26.3518C26.7046 17.0494 26.9601 17.3171 26.9601 17.6456Z" fill="#292D32"/>
<path d="M24.5006 15.7577H25.7416C26.4107 15.7577 26.9582 15.2101 26.9582 14.5409V14.0055C26.9582 11.4867 24.9021 9.43027 22.3837 9.43027H8.4168C7.38267 9.43027 6.4337 9.77097 5.66723 10.355C4.56009 11.1825 3.84229 12.5088 3.84229 14.0055V16.1714C3.84229 16.6338 4.32894 16.9258 4.76692 16.7798C5.44823 16.5486 6.16604 16.4269 6.88385 16.4269C10.5702 16.4269 13.5753 19.4324 13.5753 23.1193C13.5753 23.9954 13.3441 24.9567 12.9792 25.8085C12.7845 26.2465 13.0886 26.7698 13.5631 26.7698H22.3837C24.9021 26.7698 26.9582 24.7134 26.9582 22.1946V21.9634C26.9582 21.2941 26.4107 20.7466 25.7416 20.7466H24.6831C23.5151 20.7466 22.3958 20.0287 22.0917 18.897C21.8484 17.9723 22.1404 17.0718 22.7487 16.4877C23.1988 16.0254 23.8193 15.7577 24.5006 15.7577ZM17.8335 15.5143H11.7504C11.2515 15.5143 10.8379 15.1006 10.8379 14.6017C10.8379 14.1028 11.2515 13.6891 11.7504 13.6891H17.8335C18.3323 13.6891 18.746 14.1028 18.746 14.6017C18.746 15.1006 18.3323 15.5143 17.8335 15.5143Z" fill="#292D32"/>
</svg>
