<svg width="35" height="35" viewBox="0 0 35 35" fill="none" xmlns="http://www.w3.org/2000/svg">
<rect width="35" height="35" rx="8" fill="white"/>
<path d="M26 26V24C26 22.9391 25.5786 21.9217 24.8284 21.1716C24.0783 20.4214 23.0609 20 22 20H14C12.9391 20 11.9217 20.4214 11.1716 21.1716C10.4214 21.9217 10 22.9391 10 24V26" stroke="#1A162E" stroke-width="1.5" stroke-linecap="round" stroke-linejoin="round"/>
<path d="M18 16C20.2091 16 22 14.2091 22 12C22 9.79086 20.2091 8 18 8C15.7909 8 14 9.79086 14 12C14 14.2091 15.7909 16 18 16Z" stroke="#1A162E" stroke-width="1.5" stroke-linecap="round" stroke-linejoin="round"/>
</svg>
